<?xml version="1.0" encoding="UTF-8"?>
<svg id="Capa_1" data-name="Capa 1" xmlns="http://www.w3.org/2000/svg" viewBox="0 0 740.07 229.21">
  <defs>
    <style>
      .cls-1 {
        fill: #fff;
      }

      .cls-2 {
        fill: #262b5f;
      }

      .cls-3 {
        fill: #e63527;
      }
    </style>
  </defs>
  <path class="cls-1" d="M239.15,173.16c3.5-2.45,4.31-8.98,4.99-12.81.85-4.83,1.14-9.75,1.36-14.64.12-2.72,1.98-4.28,4.07-4.7-.19-6.6-1.38-12.27-3.35-19.79-1.21-.63-2.16-1.75-2.65-3.12-1.24-3.48-2.24-7.07-3.73-10.45-.93-2.11-.81-4.49.81-6.07-.77-3.49-1.48-7.71-1.92-16-1.52-.34-2.83-1.43-3.27-3.47-2.12-9.96-5.66-20.16,1.64-28.86.48-.57,1-.98,1.54-1.25.06-.56.13-1.12.2-1.69,1.97-14.95,6.04-22.75,7.17-24.85,2.14-3.95,4.38-6.98,6.05-9.02-6.14-5.48-12.27-10.96-18.41-16.43-2.17,1.83-5.37,4.38-9.42,7.16-8.46,5.81-16.68,11.46-28.44,14-.4.09-1,.21-1.76.35-7.65,6.34-21.16,8.3-26.17-1.01-6.36-1.64-11.58-4.1-16.8-6.55-4.45-2.1-7.57-3.95-9.62-5.28-4.22-2.27-7.7-5.67-12.25-7.43-.33-.13-.65-.28-.95-.46-2.11.27-4.22.54-6.33.8-8.8,6.85-28.89,20.53-57.99,24.12-21.65,2.67-39.24-1.36-49.34-4.51,1.92,3.92,4.53,9.91,6.51,17.53,1.53,5.87,8.23,34.09-4.51,62.12-5.14,11.31-8.38,11.43-12.52,23.54-2.48,7.26-6.26,18.8-2.34,31.53,1.91,6.19,5.01,10.59,7.1,13.56,5.36,7.61,11.43,12.46,15.58,15.27,9.19,2,68.43,15.01,77.38,24.11.38.39.73.75,1.07,1.09.37-.06.77-.09,1.2-.06,2.18.13,4.41-.49,6.56.04,2.43.6,4.27,2.1,5.69,4.12,2.18,3.1,3.25,6.82,5.13,10.08,6.11-2.23,11.89-5.15,17.51-8.96,1.81-1.23,3.58-1.04,4.92-.13,2.11-1.54,4.57-3.13,7.21-4.41,2.6-1.25,5.91-2.03,12.41-3.52,9.84-2.26,13.75-2.61,23.42-4.59,7.11-1.46,12.32-2.78,15.66-3.63,17.43-4.43,21.48-6.81,23.59-8.19.93-.61,5.59-3.69,10.28-9.23.41-.49.81-.98,1.19-1.46-1.12-2.15-.98-5.08,1.55-6.84Z"/>
  <path class="cls-2" d="M129.77.44s-.02-.01-.03-.02c-1.69.33-3.06.47-4.7.52-1.05-.09-2.3.04-3.15.65-14.17,10.01-30.85,18.93-48.31,20.78-18.59,1.97-38.64-7.76-51.12-21.37-1.07.36-1.67,1.17-2.46,2.05L4.94,19.82c9.24,9.18,13.24,20.43,14.46,33.23l.41,4.25c.24,2.53.18,4.9-.02,7.44l-.34,4.31c-.21,2.61-.45,5.09-.89,7.69l-.86,5.13-.69,3.31c-1.33,6.34-3.05,12.39-5.24,18.41h118.01V.44ZM28.11,59.35l3.47-11.78-8.52-6.68c-.08-.06-.34-.37-.4-.43-.1-.09.58-.48.82-.48l10.37-.02,3.37-11.2c1.14.95,1.14,1.81,1.47,2.86l2.58,8.33,11.6.21-8.94,7.07c-.23,1,.11,2.35.45,3.44l2.23,7.04c.09.29-.28,1.2-.59,1.19l-8.47-6.56c-3.26,2.41-5.75,4.74-9.43,7.03ZM69.29,73.57l-8.45,6.7,3.28,11.77c-3.46-2.31-5.86-4.4-9.23-6.99l-9.27,6.9c.69-4.2,2.1-7.45,3.2-11.64l-8.22-6.5c-.2-.16-.49-.6-.58-.75-.12-.2.74-.47,1.04-.47l10.1-.06,2.05-6.9c.47-1.59.88-2.93,1.77-4.4l3.5,11.32,10.41.05c.13,0,.62.22.66.31.06.14-.14.55-.27.66ZM70.67,52.76l-7.34,5.69c-.22.17-.95.27-1.15.23-.25-.05-.13-.74-.03-1.08l2.15-6.91c.25-.82,1.06-2.88.35-3.45l-8.77-7.08,11.59-.24,2.67-8.87c.26-.87.46-1.85,1.43-1.98l3.26,10.84c3.85.07,7.29-.06,11.56.27l-9.29,7.42,3.4,11.23c-.59-.06-1.29-.21-1.58-.44l-5.55-4.37c-.53-.42-1.8-1.97-2.71-1.27ZM100.2,75.4l-6.23,4.89,3.39,11.5c-1.82-.68-2.66-1.56-3.85-2.49l-5.52-4.3-8.82,6.86c-.34-1.13-.02-2.07.3-3.14l2.53-8.45-7.45-5.83c-.61-.48-1.01-.96-1.37-1.84l11.14-.06,2.62-8.73c.27-.9.53-1.59,1.34-2.41l3.38,11.14,11.16.05c-.6,1.34-1.56,1.95-2.62,2.79ZM114.66,57.43c.19.66.56,1.45.04,1.85l-9.01-6.98-8.79,6.86c-.26-.87-.1-1.68.15-2.56l2.64-9.02-9.18-7.35c4.31-.42,7.57-.2,11.54-.37l3.15-10.41c.06-.19.34-.61.38-.68.06-.12.48.17.53.34l3.28,10.82,10.02.03c.27,0,.9.43,1.09.69l-8.73,6.85,2.9,9.93Z"/>
  <path class="cls-2" d="M236.42,181.46c-3.02-2.69-5.55-5.44-8.29-8.28l-19.83-20.6c-3.71-3.86-7.34-7.17-10.96-11.83l52.04-.07c.56,4.35-.05,8.53-.7,12.83-1.68,10.12-5.4,19.4-12.26,27.94Z"/>
  <path class="cls-2" d="M239.2,89.97l-28.14-.13-11.99-.46,14.35-14.35,18.41-18.1,6.99-6.62c.58,3.07-.47,5.38-.51,8.08-.1,6.68-.45,13.2.1,19.76l.54,6.46.24,5.37Z"/>
  <path class="cls-2" d="M191.87,25.65l-12.47,13.22-13.69,14.68c-.71.76-1.25,1.6-2.18,2.08-.56-.66-.24-1.58-.23-2.3l.24-21.32.31-8.74c.04-1.21.22-2.09.38-3.69l3.65.88,3.5.81c4.45,1.03,11.78,1.75,16.1,1.12l8.28-1.22c-1.26,1.59-2.41,2.92-3.89,4.49Z"/>
  <path class="cls-2" d="M173.55,205.41l-4.05.81c-2.03.41-3.97.83-6.04.88l-.25-6.25-.38-10.29c-.18-4.95-.26-9.67-.1-15.11l23.12,27.12c-1.51.9-2.36.86-3.59,1.1l-3.89.77-4.83.97Z"/>
  <g>
    <path class="cls-1" d="M54.88,85.05l-9.27,6.9c.69-4.2,2.1-7.45,3.2-11.64l-8.22-6.5c-.2-.16-.49-.6-.58-.75-.12-.2.74-.47,1.04-.47l10.1-.06,2.05-6.9c.47-1.59.88-2.93,1.77-4.4l3.5,11.32,10.41.05c.13,0,.62.22.66.31.06.14-.14.55-.27.66l-8.45,6.7,3.28,11.77c-3.46-2.31-5.86-4.4-9.23-6.99Z"/>
    <path class="cls-1" d="M87.98,85l-8.82,6.86c-.34-1.13-.02-2.07.3-3.14l2.53-8.45-7.45-5.83c-.61-.48-1.01-.96-1.37-1.84l11.14-.06,2.62-8.73c.27-.9.53-1.59,1.34-2.41l3.38,11.14,11.16.05c-.6,1.34-1.56,1.95-2.62,2.79l-6.23,4.89,3.39,11.5c-1.82-.68-2.66-1.56-3.85-2.49l-5.52-4.3Z"/>
    <path class="cls-1" d="M114.7,59.28l-9.01-6.98-8.79,6.86c-.26-.87-.1-1.68.15-2.56l2.64-9.02-9.18-7.35c4.31-.42,7.57-.2,11.54-.37l3.15-10.41c.06-.19.34-.61.38-.68.06-.12.48.17.53.34l3.28,10.82,10.02.03c.27,0,.9.43,1.09.69l-8.73,6.85,2.9,9.93c.19.66.56,1.45.04,1.85Z"/>
    <path class="cls-1" d="M70.67,52.76l-7.34,5.69c-.22.17-.95.27-1.15.23-.25-.05-.13-.74-.03-1.08l2.15-6.91c.25-.82,1.06-2.88.35-3.45l-8.77-7.08,11.59-.24,2.68-8.87c.26-.87.46-1.85,1.43-1.98l3.26,10.84c3.85.07,7.29-.06,11.56.27l-9.29,7.42,3.4,11.23c-.59-.06-1.29-.21-1.58-.44l-5.55-4.37c-.53-.42-1.8-1.97-2.71-1.27Z"/>
    <path class="cls-1" d="M46.01,58.87l-8.47-6.56c-3.26,2.41-5.75,4.74-9.43,7.03l3.47-11.78-8.52-6.68c-.08-.06-.34-.37-.4-.43-.1-.09.58-.48.82-.48l10.37-.02,3.37-11.2c1.14.95,1.14,1.81,1.47,2.86l2.58,8.33,11.6.21-8.94,7.07c-.23,1,.11,2.35.45,3.44l2.23,7.04c.09.29-.28,1.2-.59,1.19Z"/>
  </g>
  <path class="cls-2" d="M740.07,7.58v200.93h-452.13V7.58h452.13ZM415.59,59.4c4.86-.47,9.04-3.68,10.69-8.08,1.74-4.66,1.43-11.94-2.56-15.17-6.22-5.05-13.87-3.76-17.68-7.51-1.86-1.82-1-4.88,1.01-6.27,5.01-3.46,11.84-1.49,14.34,4.1l1.29,2.87c.15.33,1,.76,1.3.62.24-.12.6-.75.6-1.02l-.11-8.94c-1.45-.96-2.85.18-3.87,1.12-3.17-1.92-6.57-2.71-10.27-2.18-5.01.72-9.01,4.55-9.6,9.63-.34,2.94-.35,5.93,1.22,8.44,1.63,2.6,4.28,4.27,7.24,5.11l9.39,2.65c1.87.53,3.42,2.08,3.92,3.49.71,2.06.28,4.07-.94,5.73-2.65,3.61-7.48,4.35-11.7,2.67-6.18-2.46-6.13-8.79-8.2-9.29-.31-.08-1.18.48-1.18.81l-.13,8.62c-.01.78-.05,1.57.26,1.94s1.54.33,1.93.04l2.7-2.01c3.19,2.18,6.35,3,10.34,2.62ZM727.79,42.38c.32-1.98.24-4.34.01-6.32-.92-8.01-8.87-16.41-17.2-17.11-4.11-.34-7.79,0-11.31,1.97-10.18,5.74-14.39,18.45-8.15,28.47,3.38,5.43,8.65,9.42,15.11,9.98,10.96.94,19.95-7.23,21.54-16.99ZM328.29,58.4c.4,0,.61-1.37.28-1.49-.26-.1-.83-.23-1.18-.26l-3.24-.23V21.68s3.25-.21,3.25-.21c.44-.03,1.05-.26,1.32-.5.21-.19-.09-1.25-.54-1.25l-18.09-.02c-.34,0-.95.62-.9.89s.54.82.84.84l3.81.21.02,34.63c-1.78.94-3.33-.34-4.59.84-.2.19.09,1.28.5,1.28h18.53ZM378.42,58.88l.05-34.82c0-.74.39-2.01.91-2.25,1.65-.78,3.11.24,3.74-.8.16-.26-.23-1.3-.56-1.3h-11.11c-.5,0-.7,1.63-.31,1.66.67.05,1.87.1,2.69.12,1.39.03,2.41.66,2.41,2.37l.02,16.02c0,.25-.35,1.1-.49,1.01s-.52-.34-.78-.71l-14.68-20.43c-5.13-.03-11.11-.02-15.17-.02-.59,0-.84,1.23-.54,1.37.23.11.86.35,1.15.36l2.76.15c.4.02.86,1.26.86,1.72v30.75c0,.84-.46,1.94-.99,2.17-1.97.85-2.46-.14-3.82.67-.26.15-.11,1.03,0,1.47h12.18c.38,0,.96-1.04.73-1.28-.91-.94-5.63.09-5.63-2.36l.02-29.69,9.8,13.21,14.75,20.69c.27.39,2,.59,2-.09ZM452.42,58.4h17.9c.59.01,1.27-.83,1.01-1.23-.82-1.29-3.33.1-4.58-.95V21.78c7.6-1.77,9.82,4.53,11.67,10.02.12.36,1.47.35,1.47-.05l.04-5.63c.01-2.29-.1-4.28-.68-6.42h-35.38s-.21,5.34-.21,5.34l-.37,5.67c-.04.6-.04,1.25.32,1.37,2.38.84,1.39-3.78,5-8.13,2.48-2.99,8.26-3.46,8.26-.96v30.06c0,1.08-.32,2.25-.55,3.44l-3.37.14c-.35.01-.92.34-1.1.56s.23,1.21.57,1.21ZM514.22,58.4c.06-.89.17-1.7-.13-1.71l-1.16-.03c-1.11-.03-2.11-.08-3.18-.57V21.67s3.26-.21,3.26-.21c.45-.03,1.06-.25,1.31-.5.2-.2-.12-1.26-.71-1.26l-18.04.02c-.57,0-.51,1.66-.07,1.69l4.32.23v34.2c-1.75,1.81-3.6-.23-4.91,1.4-.2.26.31,1.17.64,1.17h18.67ZM557.18,58.4c.36,0,.58-1.42.3-1.5-2.8-.79-3.23.3-4.51-.93V21.82c10.23-2.63,10.78,10.14,12.24,10.32.27.03,1.06-.09,1.06-.37l-.03-1.23-.27-10.84-35.91.02-.17,10.86c0,.41-.27,1.31.07,1.38.3.06.93.12,1.2.11.82-.03,1.81-12.88,11.95-10.27v34.61s-3.32.24-3.32.24c-.44.03-1.03.26-1.31.47-.22.17.11,1.29.49,1.29h18.21ZM613.33,23.36v24.01c0,1.45-.48,3.5-.95,4.73-1.1,2.92-3.82,4.35-6.56,4.87-3.84.73-8.31-.4-9.38-4.91-.13-.55-.51-1.61-.51-2.22v-28.22s3.96-.17,3.96-.17c.38-.02,1.05-.5,1.08-.84s-.7-.93-1.09-.93l-18.01.02c-.08.52-.03,1.55.18,1.7l4,.21.06,27.13c0,3.53,1.98,6.71,4.93,8.43,4.29,2.5,11.34,2.86,16.02,1.66,4.12-1.06,8.22-4.35,8.25-9.01l.16-26.13c0-.62.69-1.9,1.26-2,2.73-.49,1.46.16,3.86-.5.34-.09.01-1.49-.34-1.49l-11.38.02c-2.06,3.29,4.46.15,4.46,3.64ZM662.89,58.41c.31,0,.68-1.08.47-1.27s-.79-.51-1.06-.52l-2.42-.04c-.33,0-1.19-.46-1.26-.78s.03-.87.03-1.43l-.02-32.61c6.87-1.62,10.04,3.64,11.41,9.48.15.65,1.17,1.1,1.81.69l-.18-6.63-.24-5.6h-35.6s-.33,4.4-.33,4.4c-.2,2.67-.12,5.19-.14,7.94l1.58-.07c1.75-5.95,3.98-11.63,11.49-10.37.17,1.13.32,2.22.32,3.42v28.73c0,.88-.18,1.88-.34,2.79l-3.9.09c-.48.01-.85,1.71-.14,1.72l18.49.05ZM703.48,203.51c11.66-4.23,18.89-16.2,22.02-27.61.36-1.3.65-2.51.88-3.83l.58-3.31c1.39-7.96,1.3-15.83-.03-23.79l-.52-3.08c-.92-5.49-2.85-10.69-6.03-15.32-2.97-4.32-6.91-7.52-11.36-10.27-11.32-7-20.78-6.77-29.22-12.58-6.12-4.22-8.79-9.23-7.79-16.77s6.3-14.35,14.27-15.92c2.59-.51,5.85-.45,8.42.03,9.94,1.87,15.61,11.32,18.58,20.1,1.58,4.67,1.87,7.16,3.25,11.48,1.78.12,3.04.05,4.67-.28l-.21-10.53-.25-24.39c-1.49-.47-3.85-1.16-4.89-.11l-5.35,5.4c-6.95-6.77-13.74-9.2-23.35-8.16-6.34.69-11.83,3.99-15.99,8.71-9.27,10.51-11.34,25.1-10.38,38.66.15,2.15.27,4.09.67,6.19,1.33,7.13,4.06,13.92,9.29,19.08,4.49,4.44,9.94,7.58,15.89,9.59l7.72,2.6c5.02,1.69,10.17,3.32,14.4,6.48,4.53,3.38,7.13,8.04,7.6,13.55.3,3.53.14,8.11-.66,11.48-2.82,11.86-12.95,19.49-25.37,17.19-13.68-2.53-20.61-18.07-23.44-30.12l-.96-4.07-5.78-.11v39.52c1.92.21,3.82.25,5.4-.05l6.6-7.73c3.81,3.7,7.93,6.52,12.81,8,5.3,1.61,13.27,1.89,18.52-.01ZM384.8,157.55c-2.07-.23-3.35-.21-4.73.38-1.78,9.51-4.54,20.91-10.26,28.81-3.69,5.11-9.41,8.83-15.87,8.86l-16.68.07v-121.97s13.03-.19,13.03-.19c.17-2.16.18-4.04-.05-6.23h-47.91c-.17,2.21-.15,4.06.02,6.22l9.73.2v121.95s-9.52.11-9.52.11c-.5,2.31-.54,4.53-.09,6.75l81.55-.02.21-20.53.42-9.84.15-14.57ZM505.43,140.32c-1.31-1.85-1.68-4.3-2-6.51-.28-1.91-.66-3.78-.69-5.7l-.25-16.77c-.02-1.26,0-2.41.01-3.67l.23-16.15c.03-1.79.89-6.19,1.55-8.01,1.22-3.34,3.84-6.23,7.58-6.58,1.74-.16,3.85-.25,5.56.04,8,1.35,11.75,11.02,13.68,17.85.58.63,2.52.7,3.11.07.5-1.98.09-4.33.07-6.34l-.14-12.48c0-.65-.48-1.52-.95-1.7-.4-.16-1.72-.08-2.03.29l-3.27,4.02c-2.75-2.78-5.79-4.53-9.62-5.14-7.8-1.25-14.58.86-20.47,6.29s-10.3,13.18-11.98,21.37c-1.39,6.76-1.08,14.89.71,21.47,2.11,7.74,6.28,14.64,12.65,19.64,9.67,7.58,26.12,6.21,33.16-3.45,3.39-4.66,4.95-10.16,4.66-15.93-.03-.7.76-1.35,1.34-1.36l3.68-.03c.67-.85.86-2.49.06-3.41h-27.54c-.83.83-.65,2.73.12,3.39l7.09.17.03,14.08c0,1.07-.58,2.92-1.02,3.84-2.55,5.33-12.12,5.27-15.35.7ZM615.86,125.4l17.02-.02,5.06,16.3-6.74.24c-.15,1.24-.14,2.31.08,3.68l27.88-.02c.33-1.28.34-2.75-.21-3.62l-4.84-.23-21.76-68.17c-1.4-.32-2.55-.32-3.86,0l-20.54,64.78c-1.57,4.94-4.94,2.86-7.05,3.88-.77.37-.6,2.83.25,3.32l17.09-.02c1.04-.23,1.07-3.47.03-3.53l-5.66-.28c-1.14-.06-1.87-2.05-1.51-3.21l3.23-10.28c.23-.72.66-2.74,1.53-2.82ZM392.32,111.67c4.61,2.08,5.36,8.03,5.84,12.3.49.58,2.16.58,2.95-.07v-29.21c-.66-.57-2.7-.73-2.86-.03l-.76,3.26c-.51,2.18-1.17,4.58-2.65,6.31-2.21,2.57-5.79,3.28-9,2.47l.02-28.84c8.02.4,15.99-1.96,20.54,5.44,1.85,3.01,3.01,6.17,4.33,9.47.39.98,2.78,1,3.12-.05l.05-16.63c0-.91-.81-1.74-1.81-1.74l-46.72.03c-.85.59-1.01,2.71-.39,3.41l5.94.12v63.79s-6.93.21-6.93.21c-.16,1.28-.16,2.36.1,3.68l48.36.02c1.18,0,2.26-.17,3.18-.65l.18-16.15c.03-2.23.22-4.27.08-6.62-.05-.76-2.48-.83-2.7-.03-1.21,4.38-2.21,8.45-4.44,12.3-5.54,9.53-13.26,7.07-22.91,7.34v-29.86c-.01-.46.11-1.04.33-1.23.59-.54,5.1.5,6.14.97ZM469.75,146.9c.76.39,1.98.29,2.66-.32l.04-65.25c0-1.66,1.17-3.19,2.66-3.3l4.36-.34c.86-.39.54-3.24-.74-3.24l-16.83-.03c-.57,0-1.23,1.06-1.24,1.56s.21,1.83.74,1.84l4.56.09c1.68.24,2.95,1.48,2.94,3.33l-.17,33.3-23.48-38.45c-.65-1.06-1.36-1.73-2.59-1.73l-21.24.06c-.89.35-1.07,2.82-.38,3.34,1.31.29,7.03-.65,7.03,2.36v59.11c.01,5.25-8.12.01-7.86,4.82.03.49.59,1.55,1.22,1.55h18.17c.8-.71,1.21-2.97.21-3.42-1.79-.81-4.1.02-5.96-.48-1.7-.46-2.23-2.56-2.23-4.2v-53c1.5,1.02,2.12,2.48,3.04,4.01l35.08,58.42ZM586.12,77.66l4.01.3c1.63.12,2.42,1.32,2.55,2.85l.4,4.56-.03,34.4-.38,7.12c-.25,4.71-.6,8.31-4.12,12.12s-8.46,4.41-13.56,3.69c-4-.56-6.75-4.1-7.59-7.93-.66-3-1.15-6.02-1.16-9.19l-.09-45.15c0-.8.34-1.89.51-2.57l7.21-.04c.15-1.25.16-2.4-.29-3.47h-28.54c-.17,1.3-.2,2.31-.17,3.42l6.72.19.12,50.56c.02,8.72,5.7,15.5,14.01,17.52,5.81,1.41,11.45,1.59,17.27.07,6.7-1.75,11.46-7.03,12.66-13.83.33-1.86.51-3.89.51-5.91l.12-43.15c0-1.05.38-2.74.72-3.51,1.52-3.1,6.64-1.2,6.89-2.19l.35-1.4c.15-.6-.39-1.77-1.24-1.77l-16.83.04c-.79.63-.87,3.21-.05,3.27ZM405.91,194.27c-.1-.9-.48-2.13-.5-2.86-.13-7.44-.49-15.43.95-22.38.43-2.06,2.01-3.39,3.95-3.93,3.76-1.05,7.83.72,9.96,4,1.56,2.41,1.88,4.1,3.01,5.01.22.18,1.29-.22,1.29-.56l-.08-9.49c-1.54-.77-2.72.32-3.65,1.62-7.13-4.75-15.14-2.93-20.76,3.01-7.17,7.59-7.36,18.96-.56,26.87,3.06,3.56,7.1,5.95,11.87,6.18,3.26.16,6.16-.31,8.84-2.33,1.77-1.34,2.3,2.62,5.02,1.09l.02-10.12c0-.49-1.23-.93-1.57-.7s-.78.83-.93,1.35c-1.28,4.59-4.85,8.32-9.5,8.91-3.82.48-6.96-1.78-7.38-5.67ZM512.23,192.73l-.31-3.1c-.31-3.03-.44-20.3,1.95-22.75,2.37-2.4,5.86-2.62,8.99-1.23,5.24,2.33,5.42,8.24,7.24,8.5.41.06,1.27-.73,1.24-1.19l-.24-4.29-.25-4.63c-1.45-.93-2.58.67-3.53,1.46-6.93-4.2-14.27-3.01-20.03,2.54-8.05,7.76-8.27,20.11-.55,28.21,2.86,3,6.48,5.2,10.75,5.46,3.12.19,6.2-.08,8.7-1.94s2.52,1.83,5.53.99v-10.68c0-.46-1.51-.59-1.77-.26-.77,1.02-1.61,6.79-7.5,9.38-2.73,1.2-6.02,1.14-8.21-.96-1.38-1.33-1.82-3.51-2.02-5.52ZM561.55,190.38h10.16s3.15,8.48,3.15,8.48l-3.53.08c-.44,0-1.04.72-.97,1.17.05.33.74.84,1.14.84l15.55-.02c.56,0,1.19-.7,1.11-1.19-.24-1.51-2.58-.25-3.37-1.15l-12.99-34.4c-.32-.84-1.21-1.33-1.91-1.19-.51.1-1.03.73-1.29,1.42l-12.19,32.4c-1.32,3.51-4.83,1.03-4.56,3.26.04.34.7.89,1.08.88l9.51-.11c.36,0,1.02-.74.91-1.06-.09-.26-.6-.8-.87-.8l-2.47-.05c-.44,0-1.39-.39-1.56-.78s-.04-1.26.14-1.75l1.28-3.39c.27-.71.91-2.67,1.67-2.67ZM460.47,183.16c0-.44,1.52-.45,2.03-.43,6.31.28,4.56,7.91,6.55,7.2.36-.13.96-.9.96-1.38l-.03-13.76c0-.47-1.22-.99-1.53-.72-1.32,1.15-.38,3.64-3.01,5.65-1.26.96-3.01,1.03-4.95.81l-.03-14.84,6.37-.11c1.75-.03,3.89.56,5.25,1.71,3.31,2.79,2.83,6.45,4.79,6.44.34,0,.99-.71.98-1.09l-.18-8.79-29.36-.04c-.4,0-1.1.54-1.06.87.22,1.59,2.43.41,3.94,1.28v32.54c-1.01,1.06-4.08-.3-4.34,1.21-.08.5.55,1.23,1.16,1.23h29.63c.31-.01,1.13-.26,1.15-.55l.06-1.11.22-5.02.07-5.55c-3.27-1.58-1.54,5.12-6.85,8.61-3.58,2.35-7.34,1.51-11.85,1.55l.03-15.72ZM638.16,188.69h-1.6s-1.59,4.12-1.59,4.12c-2.48,6.42-8.35,6.49-14.51,6.02v-33.14s4.78-.21,4.78-.21c.12-.26.21-1.13.01-1.35s-.79-.33-1.33-.33l-16.11.03c-.35,0-.81,1.49-.44,1.53l1.35.17c.73.09,1.46.21,2.17.42v32.85s-2.89.19-2.89.19c-.34.02-.8.81-.74,1.13s.73.81,1.13.81l28.31-.02c.39,0,1.44-.59,1.44-1.01l.02-11.23ZM435.88,201.24c3.12.75,5.72-2.04,5.38-4.97-.29-2.5-3.08-4.78-5.68-3.78-2.07.8-3.31,2.52-3.27,4.47.04,1.83,1.3,3.74,3.56,4.29ZM490.22,201.33c2.83-.04,4.68-2.69,4.2-5.42-.41-2.35-3.15-4.4-5.61-3.43-2.28.91-3.34,2.96-3.07,5.1s2.09,3.79,4.48,3.75ZM547.56,195.51c-.45-1.74-2.06-3.05-3.93-3.24-2.72-.27-5.29,2.75-4.73,5.42s3.15,4.06,5.34,3.54c2.49-.58,4.06-2.92,3.32-5.73ZM601.06,197.68c.74-2.95-2.39-6.02-5.22-5.34-2.73.66-3.87,2.98-3.46,5.52.36,2.21,2.3,3.54,4.42,3.48,1.95-.06,3.66-1.24,4.27-3.66ZM646.69,201.37c2.6.13,4.62-2.09,4.67-4.41s-1.68-4.55-4.45-4.72c-1.54-.1-3.26,1.33-4.08,2.75-.75,1.3-.46,3.02.35,4.32.6.95,2.04,1.99,3.5,2.06Z"/>
  <path class="cls-1" d="M384.8,157.55l-.15,14.57-.42,9.84-.21,20.53-81.55.02c-.45-2.21-.4-4.43.09-6.75l9.51-.11v-121.95s-9.72-.2-9.72-.2c-.17-2.15-.19-4.01-.02-6.22h47.91c.23,2.2.22,4.08.05,6.24l-13.04.19v121.97s16.69-.07,16.69-.07c6.46-.03,12.18-3.75,15.87-8.86,5.71-7.9,8.48-19.3,10.26-28.81,1.38-.59,2.66-.61,4.73-.38Z"/>
  <path class="cls-1" d="M703.48,203.51c-5.25,1.91-13.22,1.62-18.52.01-4.88-1.48-9-4.31-12.81-8l-6.6,7.73c-1.58.3-3.48.26-5.41.05v-39.52s5.78.11,5.78.11l.96,4.07c2.83,12.05,9.76,27.59,23.44,30.12,12.42,2.3,22.55-5.33,25.37-17.19.8-3.37.96-7.96.66-11.48-.46-5.51-3.06-10.17-7.6-13.55-4.23-3.16-9.38-4.79-14.4-6.48l-7.72-2.6c-5.95-2.01-11.4-5.15-15.89-9.59-5.22-5.16-7.95-11.96-9.29-19.08-.39-2.1-.52-4.04-.67-6.19-.96-13.56,1.1-28.15,10.38-38.66,4.16-4.72,9.65-8.02,15.99-8.71,9.61-1.04,16.39,1.39,23.35,8.16l5.35-5.4c1.04-1.05,3.4-.35,4.89.11l.25,24.39.21,10.53c-1.63.33-2.9.39-4.67.28-1.38-4.31-1.67-6.81-3.25-11.48-2.97-8.77-8.63-18.23-18.58-20.1-2.57-.48-5.83-.54-8.42-.03-7.97,1.57-13.24,8.16-14.27,15.92s1.66,12.55,7.79,16.77c8.44,5.82,17.9,5.58,29.22,12.58,4.45,2.75,8.39,5.94,11.36,10.27,3.18,4.63,5.11,9.83,6.03,15.32l.52,3.08c1.33,7.96,1.42,15.83.03,23.79l-.58,3.31c-.23,1.32-.52,2.53-.88,3.83-3.13,11.4-10.36,23.37-22.02,27.61Z"/>
  <path class="cls-1" d="M392.32,111.67c-1.04-.47-5.55-1.51-6.14-.97-.21.19-.34.77-.34,1.23v29.86c9.66-.27,17.38,2.19,22.92-7.34,2.23-3.85,3.23-7.92,4.44-12.3.22-.8,2.66-.72,2.7.03.14,2.35-.06,4.39-.08,6.62l-.18,16.15c-.93.49-2.01.65-3.18.65l-48.36-.02c-.26-1.32-.26-2.4-.1-3.68l6.95-.21v-63.79s-5.95-.12-5.95-.12c-.63-.7-.47-2.82.39-3.41l46.72-.03c1,0,1.81.83,1.81,1.74l-.05,16.63c-.34,1.05-2.73,1.02-3.12.05-1.32-3.3-2.48-6.46-4.33-9.47-4.55-7.4-12.52-5.04-20.54-5.44l-.02,28.84c3.2.81,6.78.1,9-2.47,1.49-1.73,2.15-4.13,2.65-6.31l.76-3.26c.16-.7,2.2-.54,2.85.03v29.21c-.78.65-2.45.65-2.94.07-.48-4.27-1.23-10.21-5.84-12.3Z"/>
  <path class="cls-1" d="M469.75,146.9l-35.08-58.42c-.92-1.54-1.54-2.99-3.03-4.01v53c-.01,1.65.53,3.74,2.22,4.2,1.86.5,4.17-.33,5.96.48,1,.46.58,2.71-.21,3.42h-18.17c-.63,0-1.19-1.05-1.22-1.54-.27-4.81,7.87.43,7.87-4.82v-59.11c-.01-3.01-5.73-2.06-7.04-2.36-.69-.52-.51-2.99.38-3.34l21.24-.06c1.23,0,1.94.67,2.59,1.73l23.48,38.45.17-33.3c0-1.85-1.27-3.09-2.94-3.33l-4.56-.09c-.53-.01-.75-1.35-.74-1.84s.67-1.56,1.24-1.56l16.83.03c1.27,0,1.6,2.85.74,3.24l-4.36.34c-1.49.12-2.66,1.64-2.66,3.3l-.04,65.25c-.68.61-1.9.71-2.66.32Z"/>
  <path class="cls-1" d="M505.43,140.32c3.23,4.57,12.8,4.62,15.35-.7.44-.92,1.02-2.78,1.02-3.84l-.03-14.08-7.09-.17c-.77-.66-.94-2.56-.12-3.39h27.54c.8.92.61,2.56-.06,3.41l-3.68.03c-.58,0-1.38.66-1.34,1.36.28,5.77-1.27,11.27-4.66,15.93-7.03,9.66-23.49,11.04-33.16,3.45-6.37-4.99-10.55-11.9-12.65-19.64-1.79-6.58-2.1-14.71-.71-21.47,1.68-8.19,5.81-15.69,11.98-21.37s12.68-7.53,20.47-6.29c3.83.61,6.87,2.36,9.62,5.14l3.27-4.02c.3-.37,1.62-.45,2.03-.29.47.18.95,1.05.95,1.7l.14,12.48c.02,2.01.43,4.36-.07,6.34-.59.63-2.53.56-3.11-.07-1.93-6.83-5.69-16.49-13.68-17.85-1.71-.29-3.82-.2-5.56-.04-3.75.34-6.37,3.23-7.58,6.58-.66,1.82-1.53,6.22-1.55,8.01l-.23,16.15c-.02,1.27-.03,2.41-.01,3.67l.25,16.77c.03,1.91.41,3.78.69,5.7.32,2.22.69,4.67,2,6.51Z"/>
  <path class="cls-1" d="M586.12,77.66c-.82-.06-.74-2.64.05-3.27l16.83-.04c.85,0,1.39,1.17,1.24,1.77l-.35,1.4c-.25.99-5.36-.92-6.89,2.19-.34.77-.71,2.47-.72,3.51l-.12,43.15c0,2.02-.18,4.05-.51,5.91-1.21,6.8-5.96,12.08-12.66,13.83-5.82,1.52-11.46,1.34-17.27-.07-8.32-2.02-13.99-8.8-14.01-17.52l-.12-50.56-6.72-.19c-.03-1.11,0-2.12.17-3.41h28.54c.44,1.06.44,2.21.29,3.45l-7.21.04c-.17.68-.51,1.77-.51,2.57l.09,45.15c0,3.17.5,6.19,1.16,9.19.84,3.83,3.59,7.36,7.59,7.93,5.1.72,9.96.2,13.56-3.69s3.87-7.41,4.12-12.12l.38-7.12.03-34.4-.4-4.56c-.13-1.52-.92-2.72-2.55-2.85l-4.01-.3Z"/>
  <path class="cls-1" d="M615.86,125.4c-.87.09-1.31,2.11-1.53,2.82l-3.23,10.28c-.36,1.15.37,3.15,1.51,3.21l5.66.28c1.04.05,1.02,3.3-.03,3.53l-17.09.02c-.84-.49-1.01-2.94-.25-3.32,2.11-1.03,5.48,1.06,7.05-3.88l20.54-64.78c1.31-.33,2.46-.32,3.86,0l21.76,68.17,4.84.23c.55.88.53,2.35.21,3.62l-27.88.02c-.22-1.37-.23-2.44-.08-3.68l6.74-.24-5.06-16.3-17.02.02ZM616.31,121.79l15.55-.04-7.26-23.44c-.69.2-1.03,1.04-1.32,1.94l-6.96,21.54Z"/>
  <path class="cls-1" d="M727.79,42.38c-1.59,9.76-10.57,17.94-21.54,16.99-6.46-.56-11.73-4.54-15.11-9.98-6.23-10.03-2.03-22.74,8.15-28.47,3.51-1.98,7.2-2.31,11.31-1.97,8.33.69,16.28,9.09,17.2,17.11.23,1.97.31,4.34-.01,6.32ZM716.16,50.41l.26-7.21c.1-2.89.12-5.67-.06-8.59-.23-3.75.62-9.4-2.69-12.3-2.71-2.37-11.47-2.98-12.96,3.21-.25,1.05-.78,2.68-.78,3.76v19.51c0,1.1.56,2.76.78,3.78.77,3.64,3.99,4.91,7.36,4.91,3.04,0,6.19-1.05,7.19-3.91.27-.79.87-2.33.9-3.16Z"/>
  <path class="cls-1" d="M378.42,58.88c0,.67-1.72.47-2,.09l-14.75-20.69-9.8-13.21-.02,29.69c0,2.45,4.72,1.42,5.63,2.36.23.24-.35,1.29-.73,1.29h-12.18c-.11-.45-.27-1.32,0-1.48,1.36-.81,1.85.18,3.82-.67.53-.23,1-1.33,1-2.17v-30.75c0-.46-.46-1.7-.86-1.72l-2.76-.15c-.29-.02-.92-.25-1.15-.36-.29-.14-.05-1.37.54-1.37,4.06,0,10.04-.01,15.17.02l14.68,20.43c.26.37.65.62.78.71s.49-.75.49-1.01l-.02-16.02c0-1.71-1.03-2.35-2.41-2.37-.81-.02-2.02-.07-2.69-.12-.39-.03-.19-1.66.31-1.66h11.11c.33,0,.72,1.03.56,1.3-.63,1.04-2.1.02-3.74.8-.53.25-.91,1.51-.91,2.25l-.05,34.82Z"/>
  <path class="cls-1" d="M460.47,183.16l-.03,15.72c4.51-.04,8.27.8,11.85-1.55,5.31-3.49,3.58-10.19,6.85-8.61l-.07,5.55-.22,5.02-.06,1.11c-.02.29-.83.54-1.15.54h-29.63c-.61.01-1.25-.71-1.16-1.22.25-1.51,3.33-.15,4.34-1.21v-32.54c-1.51-.87-3.72.31-3.94-1.28-.05-.33.66-.87,1.06-.87l29.36.04.18,8.79c0,.38-.64,1.09-.98,1.09-1.96,0-1.48-3.65-4.79-6.44-1.36-1.15-3.5-1.74-5.25-1.71l-6.37.11.03,14.84c1.93.22,3.68.15,4.95-.81,2.64-2.01,1.69-4.5,3.01-5.65.31-.27,1.53.25,1.53.72l.03,13.76c0,.48-.6,1.25-.96,1.38-1.99.71-.23-6.92-6.55-7.2-.52-.02-2.03-.01-2.03.43Z"/>
  <path class="cls-1" d="M452.42,58.4c-.34,0-.76-1-.57-1.21s.76-.54,1.1-.56l3.37-.14c.22-1.19.54-2.36.54-3.44v-30.06c0-2.5-5.78-2.03-8.25.96-3.61,4.35-2.62,8.97-5,8.13-.35-.12-.35-.77-.32-1.37l.37-5.67.21-5.33h35.38c.58,2.13.7,4.13.68,6.42l-.04,5.63c0,.4-1.35.41-1.47.05-1.86-5.49-4.07-11.79-11.67-10.02v34.45c1.25,1.04,3.76-.34,4.58.95.26.41-.42,1.25-1.01,1.25h-17.9Z"/>
  <path class="cls-1" d="M662.89,58.41l-18.49-.05c-.71,0-.34-1.7.14-1.72l3.9-.09c.16-.91.33-1.92.33-2.79v-28.73c0-1.2-.15-2.29-.32-3.42-7.51-1.26-9.74,4.41-11.49,10.37l-1.58.07c.01-2.75-.06-5.27.14-7.94l.33-4.39h35.6s.24,5.59.24,5.59l.18,6.63c-.64.41-1.66-.04-1.81-.69-1.37-5.83-4.54-11.09-11.41-9.48l.02,32.61c0,.56-.1,1.11-.03,1.43s.93.77,1.26.78l2.42.04c.28,0,.85.33,1.06.52s-.16,1.27-.47,1.27Z"/>
  <path class="cls-1" d="M557.18,58.4h-18.21c-.38.01-.71-1.11-.49-1.28.28-.21.87-.44,1.31-.47l3.31-.24V21.8c-10.13-2.61-11.12,10.24-11.94,10.27-.27,0-.91-.05-1.2-.11-.34-.07-.07-.97-.07-1.38l.17-10.86,35.91-.02.27,10.84.03,1.23c0,.28-.78.4-1.06.37-1.46-.18-2.02-12.96-12.24-10.32v34.15c1.27,1.24,1.7.14,4.51.93.28.08.06,1.5-.3,1.5Z"/>
  <path class="cls-1" d="M613.33,23.36c0-3.49-6.52-.35-4.46-3.64l11.38-.02c.35,0,.68,1.39.34,1.49-2.4.67-1.13.01-3.86.5-.57.1-1.25,1.38-1.26,2l-.16,26.13c-.03,4.67-4.13,7.95-8.25,9.01-4.68,1.2-11.73.84-16.02-1.66-2.95-1.72-4.92-4.89-4.93-8.43l-.06-27.13-4-.21c-.21-.15-.26-1.18-.18-1.7l18.01-.02c.39,0,1.13.58,1.09.93s-.7.82-1.08.84l-3.95.17v28.22c0,.61.37,1.67.5,2.22,1.07,4.51,5.53,5.64,9.38,4.91,2.75-.52,5.47-1.95,6.56-4.87.46-1.23.94-3.28.94-4.73v-24.01Z"/>
  <path class="cls-1" d="M415.59,59.4c-3.99.39-7.15-.44-10.34-2.62l-2.7,2.01c-.39.29-1.63.32-1.93-.04s-.27-1.17-.26-1.94l.13-8.62c0-.32.87-.88,1.18-.81,2.06.5,2.02,6.83,8.2,9.29,4.22,1.68,9.05.94,11.7-2.67,1.22-1.67,1.65-3.67.94-5.73-.49-1.42-2.05-2.97-3.92-3.49l-9.39-2.65c-2.96-.84-5.61-2.51-7.24-5.11-1.57-2.51-1.56-5.5-1.22-8.44.59-5.08,4.59-8.91,9.6-9.63,3.69-.53,7.1.26,10.27,2.18,1.01-.94,2.41-2.08,3.87-1.12l.11,8.94c0,.27-.36.9-.6,1.02-.3.15-1.15-.29-1.3-.62l-1.29-2.87c-2.51-5.58-9.34-7.56-14.34-4.1-2.01,1.39-2.87,4.44-1.01,6.27,3.81,3.75,11.46,2.46,17.68,7.51,3.98,3.24,4.3,10.52,2.56,15.17-1.65,4.4-5.84,7.61-10.69,8.08Z"/>
  <path class="cls-1" d="M638.16,188.69l-.02,11.23c0,.42-1.05,1.01-1.44,1.01l-28.31.02c-.39,0-1.07-.49-1.13-.81s.4-1.11.74-1.13l2.88-.19v-32.85c-.7-.2-1.43-.33-2.16-.42l-1.35-.17c-.36-.05.09-1.53.44-1.53l16.11-.03c.54,0,1.13.12,1.33.33s.1,1.08-.01,1.35l-4.78.21v33.14c6.16.47,12.02.4,14.51-6.02l1.59-4.11h1.6Z"/>
  <path class="cls-1" d="M561.55,190.38c-.76,0-1.41,1.96-1.67,2.67l-1.28,3.39c-.18.49-.32,1.36-.14,1.75s1.12.77,1.56.78l2.47.05c.27,0,.78.54.87.8.11.32-.55,1.06-.91,1.06l-9.51.11c-.38,0-1.04-.55-1.08-.88-.27-2.23,3.24.25,4.56-3.26l12.19-32.4c.26-.69.77-1.32,1.29-1.42.69-.14,1.59.35,1.91,1.19l12.99,34.4c.79.9,3.13-.36,3.37,1.15.08.48-.55,1.19-1.11,1.19l-15.55.02c-.4,0-1.09-.51-1.14-.84-.07-.45.54-1.16.97-1.17l3.53-.08-3.15-8.48h-10.16ZM571.04,188.33l-4.56-12.2-4.83,12.36c3.51.12,6.07.19,9.38-.16Z"/>
  <path class="cls-1" d="M405.91,194.27c.42,3.89,3.56,6.15,7.38,5.67,4.66-.59,8.23-4.32,9.5-8.91.15-.52.59-1.12.93-1.35s1.57.21,1.57.7l-.02,10.12c-2.73,1.54-3.25-2.42-5.02-1.09-2.68,2.02-5.59,2.48-8.84,2.33-4.77-.23-8.81-2.62-11.87-6.18-6.8-7.91-6.62-19.28.56-26.87,5.62-5.94,13.62-7.76,20.76-3.01.93-1.3,2.11-2.38,3.65-1.62l.08,9.49c0,.34-1.06.74-1.29.56-1.12-.91-1.44-2.6-3.01-5.01-2.13-3.28-6.21-5.05-9.96-4-1.94.54-3.52,1.87-3.95,3.93-1.44,6.95-1.08,14.94-.95,22.38.01.73.4,1.96.5,2.86Z"/>
  <path class="cls-1" d="M328.29,58.4h-18.53c-.41,0-.7-1.09-.5-1.28,1.26-1.19,2.81.1,4.59-.84l-.02-34.63-3.81-.21c-.3-.02-.79-.57-.84-.84s.56-.89.9-.89l18.09.02c.45,0,.75,1.06.54,1.25-.27.24-.88.47-1.32.5l-3.25.21v34.75s3.24.23,3.24.23c.35.02.92.16,1.18.26.33.12.11,1.49-.28,1.49Z"/>
  <path class="cls-1" d="M512.23,192.73c.2,2.01.64,4.18,2.02,5.52,2.19,2.11,5.47,2.17,8.21.96,5.89-2.6,6.73-8.36,7.5-9.38.25-.34,1.77-.2,1.77.26v10.68c-3.01.84-2.92-2.93-5.53-.99s-5.59,2.12-8.7,1.94c-4.27-.26-7.89-2.46-10.75-5.46-7.72-8.1-7.5-20.45.55-28.21,5.76-5.55,13.1-6.73,20.03-2.54.95-.79,2.09-2.39,3.53-1.46l.25,4.63.24,4.29c.03.46-.84,1.25-1.24,1.19-1.82-.26-2.01-6.17-7.24-8.5-3.13-1.39-6.63-1.17-8.99,1.23-2.39,2.45-2.26,19.72-1.95,22.75l.31,3.1Z"/>
  <path class="cls-1" d="M514.22,58.4h-18.67c-.33,0-.84-.91-.64-1.17,1.31-1.63,3.16.41,4.9-1.4V21.64s-4.32-.23-4.32-.23c-.45-.02-.51-1.69.07-1.69l18.04-.02c.6,0,.92,1.06.71,1.26-.25.25-.85.47-1.31.5l-3.26.21v34.42c1.07.49,2.07.55,3.18.57l1.16.03c.3,0,.19.82.13,1.71Z"/>
  <path class="cls-1" d="M435.88,201.24c-2.27-.54-3.53-2.46-3.56-4.29-.04-1.95,1.2-3.67,3.27-4.47,2.59-1,5.39,1.28,5.68,3.78.34,2.94-2.27,5.72-5.38,4.97Z"/>
  <path class="cls-1" d="M601.06,197.68c-.61,2.42-2.32,3.61-4.27,3.66-2.12.06-4.06-1.28-4.42-3.48-.41-2.54.74-4.86,3.46-5.52,2.83-.68,5.96,2.39,5.22,5.34Z"/>
  <path class="cls-2" d="M616.31,121.79l6.96-21.54c.29-.9.63-1.74,1.32-1.94l7.26,23.44-15.55.04Z"/>
  <path class="cls-1" d="M646.69,201.37c-1.47-.07-2.91-1.11-3.5-2.06-.81-1.3-1.11-3.02-.35-4.32.82-1.42,2.53-2.85,4.08-2.75,2.77.17,4.49,2.36,4.45,4.72s-2.06,4.54-4.67,4.41Z"/>
  <path class="cls-1" d="M547.56,195.51c.73,2.81-.84,5.15-3.32,5.73-2.19.51-4.79-.93-5.34-3.54s2-5.69,4.73-5.42c1.88.19,3.48,1.5,3.93,3.24Z"/>
  <path class="cls-2" d="M716.16,50.41c-.03.82-.63,2.37-.9,3.16-1,2.86-4.15,3.91-7.19,3.91-3.37,0-6.59-1.27-7.36-4.91-.22-1.02-.78-2.68-.78-3.78v-19.51c0-1.08.53-2.72.78-3.76,1.49-6.18,10.25-5.58,12.96-3.21,3.3,2.89,2.46,8.55,2.69,12.3.18,2.92.17,5.7.06,8.59l-.26,7.21Z"/>
  <path class="cls-1" d="M490.22,201.33c-2.39.04-4.21-1.64-4.48-3.75s.79-4.19,3.07-5.1c2.46-.98,5.19,1.08,5.61,3.43.48,2.73-1.37,5.38-4.2,5.42Z"/>
  <path class="cls-2" d="M571.04,188.33c-3.31.35-5.87.28-9.38.16l4.83-12.36,4.56,12.2Z"/>
  <path class="cls-3" d="M187.95,85.34l10.63-10.93,7.46-7.85,9.94-10.28,8.33-8.69,6.43-6.69,9.44-9.72c7.98-8.22,4.39-7.73,11.86-14.75-1.18-1.58-2.58-2.78-4-4.02l-9.28-8.09L233.62,0c-2.12,2.24-13.33,10.24-14.03,11.01l-64.06,70.28c-1.47,1.61-2.44,3.13-4.47,4.39l-.03-71.74c-7.9-3.75-14.64-8.49-21.26-13.5v103.16H11.76c-.35.96-.7,1.91-1.07,2.87l-5.45,14.08-2.67,7.43c-.23.64-.21,1.57-.05,2.51h125.64s.06,24.06.06,24.06c0,.72-.65,1.29-1.46,1.37H1.7c1.66,5.91,4.51,10.46,7.7,14.94,2.08,2.55,12.19,13.9,14.97,13.9h98.88c1.83-.01,3.11-.19,4.94.2l-.05,23.79-27.81.12c3.69,3.05,6.69,4.87,9.28,7.95l4.77,5.52c2.17,2.51,4.45,4.92,7.65,6.29,1.9.81,5,.87,6.8-.34,7.55-5.06,8.46-9.01,18.03-15.03l4.18-2.63v-65.1c1.07-.31,1.4.6,1.99,1.23l9.92,10.69,8.89,9.57,4.42,4.8,6.75,7.05,6.57,6.93,12.94,13.08c.58.44,2.26-.13,2.98-.33l6.46-1.76c3.66-1,11.05-3.42,14.15-6.1-1.43-1.99-2.72-3.39-4.32-5.19l-46.21-52.32c-.78-.89-1.33-1.49-1.77-2.69l74.7-.02c-1.74-10.56-4.69-14.37-6.84-24.97-.28-1.37-.43-2.49-1.05-3.9l-67.85-.06c2.62-3.25,5.09-5.66,7.7-8.38l7.47-7.81Z"/>
  <path class="cls-1" d="M46.59,57.69l-2.23-7.04c-.34-1.09-.69-2.43-.45-3.44l8.94-7.07-11.6-.21-2.58-8.33c-.32-1.05-.33-1.91-1.47-2.86l-3.37,11.2-10.37.02c-.23,0-.92.39-.82.48.07.06.33.37.4.43l8.52,6.68-3.47,11.78c3.68-2.29,6.17-4.62,9.43-7.03l8.47,6.56c.31.01.68-.89.59-1.19Z"/>
  <path class="cls-1" d="M68.9,72.59l-10.41-.05-3.5-11.32c-.89,1.47-1.29,2.81-1.77,4.4l-2.05,6.9-10.1.06c-.3,0-1.16.27-1.04.47.09.15.38.6.58.75l8.22,6.5c-1.09,4.19-2.51,7.44-3.2,11.64l9.27-6.9c3.37,2.59,5.77,4.67,9.23,6.99l-3.28-11.77,8.45-6.7c.14-.11.34-.52.27-.66-.04-.09-.52-.31-.66-.31Z"/>
  <path class="cls-1" d="M119.4,39.96l-10.02-.03-3.28-10.82c-.05-.17-.47-.46-.53-.34-.04.08-.32.5-.38.68l-3.15,10.41c-3.97.16-7.24-.05-11.54.37l9.18,7.35-2.64,9.02c-.26.87-.41,1.69-.15,2.56l8.79-6.86,9.01,6.98c.52-.4.16-1.19-.04-1.85l-2.9-9.93,8.73-6.85c-.18-.26-.82-.69-1.09-.69Z"/>
  <path class="cls-1" d="M78.93,58.4c.28.22.99.37,1.58.44l-3.4-11.23,9.29-7.42c-4.27-.33-7.71-.21-11.56-.27l-3.26-10.84c-.97.13-1.16,1.11-1.43,1.98l-2.67,8.87-11.59.24,8.77,7.08c.7.57-.1,2.63-.35,3.45l-2.15,6.91c-.11.35-.23,1.03.03,1.08.19.04.92-.06,1.15-.23l7.34-5.69c.91-.71,2.18.85,2.71,1.27l5.55,4.37Z"/>
  <path class="cls-1" d="M88.27,61.42c-.82.82-1.07,1.5-1.34,2.41l-2.62,8.73-11.14.06c.35.87.76,1.36,1.37,1.84l7.45,5.83-2.53,8.45c-.32,1.07-.64,2.01-.3,3.14l8.82-6.86,5.52,4.3c1.2.93,2.03,1.8,3.85,2.49l-3.39-11.5,6.23-4.89c1.06-.84,2.02-1.45,2.62-2.79l-11.16-.05-3.38-11.14Z"/>
</svg>